<?xml version="1.0" standalone="no"?><!DOCTYPE svg PUBLIC "-//W3C//DTD SVG 1.1//EN" "http://www.w3.org/Graphics/SVG/1.1/DTD/svg11.dtd"><svg class="icon" width="200px" height="187.20px" viewBox="0 0 1094 1024" version="1.1" xmlns="http://www.w3.org/2000/svg"><path d="M890.943267 144.177239m-113.048062 0a113.048063 113.048063 0 1 0 226.096125 0 113.048063 113.048063 0 1 0-226.096125 0Z" fill="#232323" /><path d="M890.943267 262.140435a117.963196 117.963196 0 1 1 118.782385-117.963196 118.782385 118.782385 0 0 1-118.782385 117.963196z m0-226.915314a108.132929 108.132929 0 1 0 108.13293 108.132929A108.132929 108.132929 0 0 0 890.943267 36.04431z" fill="#232323" /><path d="M211.016514 144.996428m-113.048062 0a113.048063 113.048063 0 1 0 226.096125 0 113.048063 113.048063 0 1 0-226.096125 0Z" fill="#232323" /><path d="M211.016514 263.778813A117.963196 117.963196 0 1 1 328.97971 144.996428a118.782385 118.782385 0 0 1-117.963196 118.782385z m0-222.81937a108.132929 108.132929 0 1 0 108.13293 104.036985A108.132929 108.132929 0 0 0 211.016514 40.959443z" fill="#232323" /><path d="M1059.696172 606.199756c-29.490799-348.974454-304.738256-573.432201-508.716281-573.432202s-491.513315 227.734503-518.546548 573.432202 354.708776 387.47633 513.631415 387.47633 545.57978-37.682688 513.631414-387.47633z" fill="#FFFFFF" /><path d="M550.979891 29.490799c204.797215 0 480.044671 227.734503 508.716281 573.432201s-354.708776 387.47633-513.631414 387.476331S2.942544 955.993398 32.433343 606.199756s314.568522-573.432201 518.546548-573.432202m0-29.490799a519.365737 519.365737 0 0 0-346.516888 163.837772A702.864041 702.864041 0 0 0 2.942544 603.742189a336.686621 336.686621 0 0 0 81.918886 267.874757 463.660894 463.660894 0 0 0 235.926391 126.974273 965.823665 965.823665 0 0 0 225.276937 25.394855 965.823665 965.823665 0 0 0 225.276936-25.394855 463.660894 463.660894 0 0 0 238.383958-126.974273 336.686621 336.686621 0 0 0 81.918886-267.874757 711.875118 711.875118 0 0 0-197.424515-437.446851 505.439526 505.439526 0 0 0-341.601754-163.837771z" fill="#232323" /><path d="M590.300956 645.520821c0 24.575666-19.660533 24.575666-44.236198 24.575666s-44.236198 0-44.236199-24.575666a44.236198 44.236198 0 0 1 88.472397 0z"  /><path d="M684.507675 517.727359m-29.490799 0a29.490799 29.490799 0 1 0 58.981598 0 29.490799 29.490799 0 1 0-58.981598 0Z" fill="#333333" /><path d="M858.994902 464.480083c42.597821 72.907808 43.41701 145.815617-17.202966 181.040738a186.77506 186.77506 0 0 1-226.915314-81.918886c-29.490799-81.918886-16.383777-163.837772 49.151331-187.594249a168.752905 168.752905 0 0 1 194.966949 88.472397zM226.581103 464.480083c-42.597821 72.907808-43.41701 145.815617 17.202966 181.040738a186.77506 186.77506 0 0 0 226.915314-81.918886c29.490799-81.918886 16.383777-163.837772-49.151332-187.594249a168.752905 168.752905 0 0 0-194.966948 88.472397z" fill="#232323" /><path d="M871.282735 670.096487a34.405932 24.575666 0 1 0 68.811864 0 34.405932 24.575666 0 1 0-68.811864 0Z" fill="#F28294" /><path d="M122.544118 670.096487a34.405932 24.575666 0 1 0 68.811864 0 34.405932 24.575666 0 1 0-68.811864 0Z" fill="#F28294" /><path d="M1002.352952 831.476692a1042.827418 1042.827418 0 0 1-917.491522-7.3727c106.494552 149.092372 344.059321 169.572094 461.203328 169.572094s346.516887-19.660533 456.288194-162.199394z" fill="#E6E6E6" /><path d="M536.234491 635.690555h19.660533v88.472396h-19.660533z"  /><path d="M586.205012 756.111317a69.631053 69.631053 0 0 1-46.693765-24.575666 9.830266 9.830266 0 0 1 13.92621-13.92621c13.926211 13.926211 27.033232 20.479721 36.04431 18.841343a27.033232 27.033232 0 0 0 16.383777-15.564588 9.830266 9.830266 0 0 1 18.022155 7.3727 46.693765 46.693765 0 0 1-31.129176 27.033232z"  /><path d="M506.743692 756.111317h-8.191888a46.693765 46.693765 0 0 1-31.129177-27.033232 9.830266 9.830266 0 0 1 18.022155-7.3727 27.033232 27.033232 0 0 0 16.383777 15.564588c9.830266 0 22.118099-4.915133 36.04431-18.841344a9.830266 9.830266 0 0 1 13.926211 13.926211 69.631053 69.631053 0 0 1-45.055388 23.756477z"  /><path d="M733.659006 502.162771m-93.38753 0a93.38753 93.38753 0 1 0 186.77506 0 93.38753 93.38753 0 1 0-186.77506 0Z" fill="#FFFFFF" /><path d="M733.659006 502.162771m-78.64213 0a78.64213 78.64213 0 1 0 157.284261 0 78.64213 78.64213 0 1 0-157.284261 0Z" fill="#232323" /><path d="M710.721718 484.140616m-41.778631 0a41.778632 41.778632 0 1 0 83.557263 0 41.778632 41.778632 0 1 0-83.557263 0Z" fill="#FFFFFF" /><path d="M742.670084 553.771669m-18.841344 0a18.841344 18.841344 0 1 0 37.682688 0 18.841344 18.841344 0 1 0-37.682688 0Z" fill="#FFFFFF" /><path d="M780.352771 525.919247m-18.841343 0a18.841344 18.841344 0 1 0 37.682687 0 18.841344 18.841344 0 1 0-37.682687 0Z" fill="#FFFFFF" /><path d="M359.289698 502.162771m-93.38753 0a93.38753 93.38753 0 1 0 186.77506 0 93.38753 93.38753 0 1 0-186.77506 0Z" fill="#FFFFFF" /><path d="M349.459431 557.048424m-19.660532 0a19.660533 19.660533 0 1 0 39.321065 0 19.660533 19.660533 0 1 0-39.321065 0Z" fill="#FFFFFF" /><path d="M310.138366 527.557625m-19.660532 0a19.660533 19.660533 0 1 0 39.321065 0 19.660533 19.660533 0 1 0-39.321065 0Z" fill="#FFFFFF" /><path d="M359.289698 502.162771m-78.642131 0a78.64213 78.64213 0 1 0 157.284261 0 78.64213 78.64213 0 1 0-157.284261 0Z" fill="#232323" /><path d="M382.226986 484.140616m-41.778632 0a41.778632 41.778632 0 1 0 83.557264 0 41.778632 41.778632 0 1 0-83.557264 0Z" fill="#FFFFFF" /><path d="M350.27862 553.771669m-18.841343 0a18.841344 18.841344 0 1 0 37.682687 0 18.841344 18.841344 0 1 0-37.682687 0Z" fill="#FFFFFF" /><path d="M312.595933 525.919247m-18.841344 0a18.841344 18.841344 0 1 0 37.682688 0 18.841344 18.841344 0 1 0-37.682688 0Z" fill="#FFFFFF" /></svg>